<?xml version="1.0" standalone="no"?>
<!DOCTYPE svg PUBLIC "-//W3C//DTD SVG 20010904//EN"
 "http://www.w3.org/TR/2001/REC-SVG-20010904/DTD/svg10.dtd">
<svg version="1.0" xmlns="http://www.w3.org/2000/svg"
 width="1001.000000pt" height="1001.000000pt" viewBox="0 0 1001.000000 1001.000000"
 preserveAspectRatio="xMidYMid meet">
<metadata>
Created by potrace 1.14, written by Peter Selinger 2001-2017
</metadata>
<g transform="translate(0.000000,1001.000000) scale(0.100000,-0.100000)"
fill="#000000" stroke="none">
<path d="M395 7931 c-238 -66 -398 -304 -389 -581 3 -102 19 -283 40 -465 6
-54 34 -240 50 -335 2 -14 8 -59 13 -101 4 -42 11 -81 14 -86 3 -5 9 -25 12
-44 3 -19 8 -42 11 -51 3 -9 6 -25 8 -35 40 -196 201 -746 266 -908 19 -45 39
-97 45 -115 1 -3 5 -14 10 -25 247 -600 504 -1048 859 -1494 247 -311 553
-613 836 -825 93 -69 108 -80 180 -130 190 -133 523 -310 760 -404 109 -44
317 -114 375 -127 11 -2 47 -12 80 -21 33 -9 67 -17 75 -19 8 -2 49 -10 90
-18 41 -9 95 -18 120 -22 25 -3 52 -8 60 -10 18 -5 141 -18 275 -30 57 -5 412
-6 465 -1 19 2 69 6 110 10 80 7 114 12 200 26 30 5 73 12 95 16 337 49 876
254 1219 462 360 218 582 395 905 721 l174 176 86 1 c222 3 462 55 714 155
186 74 415 200 587 323 693 493 1160 1172 1253 1821 13 97 15 286 3 375 -21
159 -92 346 -177 469 -143 206 -403 362 -663 396 -23 3 -57 8 -76 10 -19 3
-88 5 -152 5 -87 1 -116 4 -113 13 20 62 27 367 11 442 -44 199 -173 354 -351
420 -48 18 -180 19 -4035 21 -3676 1 -3990 0 -4045 -15z m8011 -342 c26 -17
49 -46 69 -85 26 -50 30 -70 30 -134 0 -75 -12 -251 -20 -290 -2 -11 -6 -48
-9 -83 -5 -54 -12 -110 -31 -242 -26 -184 -77 -435 -132 -650 -13 -55 -26
-107 -28 -115 -14 -56 -67 -229 -112 -360 -29 -85 -55 -162 -57 -170 -5 -15
-105 -260 -147 -360 -13 -30 -58 -125 -100 -210 -215 -437 -477 -831 -788
-1185 -80 -91 -363 -366 -456 -444 -681 -565 -1420 -851 -2200 -850 -190 0
-242 3 -415 25 -466 58 -987 258 -1420 547 -250 166 -418 305 -650 537 -846
845 -1418 2104 -1570 3455 -6 55 -13 110 -15 122 -6 36 -19 245 -18 294 1 79
51 169 116 209 27 17 240 17 3971 16 l3942 -1 40 -26z m783 -898 c250 -74 401
-233 462 -486 31 -133 27 -329 -11 -475 -5 -19 -11 -46 -14 -60 -12 -64 -70
-215 -134 -350 -44 -92 -181 -319 -234 -385 -170 -215 -280 -335 -433 -471
-357 -317 -783 -544 -1152 -613 l-42 -8 84 121 c71 102 190 288 231 361 120
211 161 290 244 459 54 111 133 288 175 394 74 188 189 523 200 579 2 15 9 39
15 53 8 21 124 477 136 533 2 10 6 27 9 38 4 11 8 47 10 79 2 33 6 63 8 67 3
5 8 29 11 53 4 25 9 64 12 87 4 27 12 43 23 46 9 2 86 3 171 2 125 -2 169 -7
229 -24z"/>
<path d="M5488 6975 c-2 -1 -28 -5 -58 -8 -150 -16 -317 -72 -463 -154 -33
-18 -61 -33 -63 -33 -2 0 -49 -29 -104 -65 -112 -74 -169 -123 -284 -245 -45
-47 -119 -124 -166 -173 l-85 -87 -87 102 c-48 57 -126 141 -173 188 -48 47
-94 92 -103 101 -35 35 -180 133 -242 164 -72 36 -167 70 -220 79 -19 3 -46 8
-60 11 -37 8 -187 8 -250 0 -137 -18 -289 -86 -396 -179 -100 -87 -203 -247
-234 -366 -7 -25 -11 -45 -10 -45 1 0 -3 -11 -8 -25 -13 -33 -25 -138 -25
-215 0 -312 136 -642 396 -965 74 -91 323 -342 467 -470 58 -51 124 -111 148
-132 91 -81 398 -334 682 -561 162 -131 301 -242 308 -248 13 -11 80 38 307
227 39 32 76 63 83 69 7 5 21 17 30 26 9 9 55 49 102 90 47 41 95 83 106 94
12 11 73 68 135 126 353 330 696 696 858 914 404 545 430 1050 76 1476 -34 41
-134 127 -188 163 -109 70 -234 117 -352 131 -79 9 -124 12 -127 10z"/>
<path d="M2114 6899 c-26 -9 -68 -62 -126 -159 -106 -177 -181 -399 -202 -600
-7 -64 -8 -254 -2 -290 3 -14 7 -44 10 -68 17 -131 67 -287 138 -429 63 -125
93 -148 138 -103 22 22 22 23 -26 120 -48 100 -102 275 -121 395 -15 94 -8
373 11 465 39 186 107 345 211 501 36 52 65 100 65 106 0 17 -38 60 -58 65
-10 3 -27 2 -38 -3z"/>
<path d="M6653 6895 c-29 -12 -43 -32 -43 -61 0 -7 25 -51 56 -96 281 -414
316 -906 100 -1381 -41 -90 -43 -102 -17 -117 49 -26 69 -11 123 90 68 127
123 291 149 440 18 105 15 353 -5 470 -35 194 -131 427 -241 581 -29 42 -62
79 -73 81 -11 3 -33 0 -49 -7z"/>
<path d="M2134 4975 c-122 -51 -135 -254 -24 -362 30 -29 44 -36 105 -47 31
-6 94 19 127 51 112 106 90 275 -46 345 -47 24 -122 30 -162 13z"/>
<path d="M6560 4978 c-98 -28 -168 -125 -157 -219 19 -162 184 -247 297 -153
50 43 90 143 85 212 -5 60 -46 125 -95 150 -48 24 -75 26 -130 10z"/>
</g>
</svg>
