<svg xmlns="http://www.w3.org/2000/svg" viewBox="0 0 500 476.23"><defs><style>.cls-1{fill:#fff;}</style></defs><title>logo-white</title><g id="Layer_2" data-name="Layer 2"><g id="Layer_1-2" data-name="Layer 1"><path class="cls-1" d="M392.44,181.4h-1.32c0,.3,0,.62,0,.93,0,77.76-63.31,141-141.09,141S109,260,109,182.27c0-.31,0-.63,0-.94h-1.31c0,.31,0,.63,0,.94a142.38,142.38,0,0,0,284.75.06C392.45,182,392.45,181.7,392.44,181.4Z"/><path class="cls-1" d="M109,181.33c0,.31,0,.63,0,.94l-100.18,0c0-.31,0-.63,0-.94Z"/><path class="cls-1" d="M491.3,182.35l-100.17,0c0-.31,0-.63,0-.93l100.18,0Z"/><path class="cls-1" d="M116.23,392.68c-7-2.61-13.37,7.82-15.71,13.33-4,9.35-3.31,18,1.7,20.46,2.32,1.14,4.84.56,6.93-1.59l2.93,1.83a12.84,12.84,0,0,1-12.36-.88c-7.15-4.47-7.39-13.65-1.44-23.14s14.34-13.32,20.77-9.29c4,2.5,6,7.51,5.82,12.11l-3.62.75C121.56,398.18,120,394.08,116.23,392.68Z"/><path class="cls-1" d="M146.65,408.29c7.33,3.37,9,12.54,4.32,22.72s-12.72,14.9-20.05,11.54-9-12.54-4.32-22.72S139.32,404.93,146.65,408.29Zm-12.74,34.65c5.2,1.35,11.6-5.44,14.4-15.16s.67-18.53-4.65-19.88-11.63,5.5-14.39,15.29S128.61,441.55,133.91,442.94Z"/><path class="cls-1" d="M183.08,422.64l-1,3.24c-.73-1.17-2.91-4-11.64-7.1l-5.68,17.64,8.23,2.65-.13.4-8.22-2.65-5.3,16.45-3.79-1.22,11.23-34.89,3.79,1.22C174.62,419.69,182.58,422.14,183.08,422.64Z"/><path class="cls-1" d="M208.5,428.32l-.7,3.33c-.84-1.09-3.3-3.63-12.31-5.83L191.7,444l8.46,1.76-.08.41-8.46-1.76-3.53,16.91-3.9-.81,7.48-35.87,3.9.81C199.78,426.28,208,427.88,208.5,428.32Z"/><path class="cls-1" d="M234.62,431.29l-.33,3.38c-1-1-3.94-3.28-13.13-4.5l-1.82,18.44,8.6.85-.05.42-8.6-.85-1.65,16.78c10.3.7,13.31-1,14.44-1.79l-.34,3.39c-.65.25-9.87-.77-14.14-1.19l-4-.39,3.6-36.47,4,.39C225.47,430.18,234,430.91,234.62,431.29Z"/><path class="cls-1" d="M261.62,431.51l0,3.4c-1.05-.88-4.26-2.84-13.53-3.08l.15,18.53,8.64-.07v.42l-8.64.07.14,16.85c10.31-.39,13.12-2.41,14.16-3.3l0,3.4c-.63.32-9.9.29-14.19.32l-4,0-.3-36.64,4,0C252.4,431.37,261,431.2,261.62,431.51Z"/><path class="cls-1" d="M280.93,452.7l-9.43.89,0-.88,9.44-.89Z"/><path class="cls-1" d="M292.05,462.65l-.42-4.56A11.85,11.85,0,0,0,303.25,463c3-.55,6-2.87,5-7.91-2-10.81-18.52-9.65-20.51-18.33-1-4.35,2.32-9,8.6-10.18,3.09-.57,6.71-.29,8.9,1.17l.25,4.21c-1.55-3.49-7.34-6-11.25-4.35a5.57,5.57,0,0,0-3.32,6.48c1.89,8.16,18.28,7.19,20.22,17.64,1.18,6.33-2,10.81-8.83,12.08C298.57,464.52,294.35,464.13,292.05,462.65Z"/><path class="cls-1" d="M319,421.84l5.6,17.62,12.9-4-5.62-17.67,3.8-1.2,11.1,34.92-3.8,1.21-5.36-16.87-12.88,4.09,5.36,16.87-3.79,1.2-11.1-34.92Z"/><path class="cls-1" d="M355.92,407.29c7.3-3.43,15.39,1.21,20.16,11.35s3.2,19.32-4.1,22.75-15.39-1.2-20.16-11.34S348.63,410.72,355.92,407.29Zm18.29,32.07c4.38-3.1,3.31-12.38-2.32-20.78s-13.74-12.45-18.19-9.26-3.3,12.43,2.41,20.85S369.73,442.51,374.21,439.36Z"/><path class="cls-1" d="M397.37,396.6c3.47,5.49,2.69,10.94-2,13.87l-5.05,3.18,8.19,13-3.39,2.08-19.57-31,6.74-4.24C388.31,389.69,393.71,390.8,397.37,396.6Zm-3.08,14.15c3.49-1.83,3.46-6.09-.12-11.76-4.13-6.55-8.53-7.92-12.87-4.2l-1.84,1.6,9.81,15.54A10.72,10.72,0,0,0,394.29,410.75Z"/><path class="cls-1" d="M60.65,181.6C65.8,81.58,148.79,1.79,250.07,1.79S434.41,81.65,439.49,181.73h1.8A191.52,191.52,0,0,0,73.66,116.93a189.93,189.93,0,0,0-14.81,64.76.88.88,0,0,1,.33-.06Q59.92,181.63,60.65,181.6Z"/><path class="cls-1" d="M69.58,181.49A180.77,180.77,0,0,1,377.89,63.64a179.45,179.45,0,0,1,52.69,118.23l1.79,0A182.55,182.55,0,0,0,121,62.38a181.19,181.19,0,0,0-53.19,119h.63A11.51,11.51,0,0,1,69.58,181.49Z"/><path class="cls-1" d="M78.51,181.38a171.86,171.86,0,0,1,343.14.37h1.79a173.64,173.64,0,0,0-346.71-.51h.16Q77.7,181.35,78.51,181.38Z"/><path class="cls-1" d="M87.38,181.72l0,0a163,163,0,0,1,325.33.28c.51,0,1,0,1.52,0h.27a164.73,164.73,0,0,0-328.89-.46c.47,0,1,.07,1.43.13A1,1,0,0,1,87.38,181.72Z"/><path class="cls-1" d="M141.15,82.54A154,154,0,0,1,403.8,181.7h.14l1.65,0a155.83,155.83,0,0,0-311,0l1.79,0A152.85,152.85,0,0,1,141.15,82.54Z"/><path class="cls-1" d="M109.39,149a146.83,146.83,0,0,0-5.93,33l1.79,0A145.68,145.68,0,0,1,110.08,153C109.81,151.65,109.56,150.31,109.39,149Z"/><path class="cls-1" d="M147.45,88.84a145.3,145.3,0,0,1,233.48,39.72.79.79,0,0,1,.54.25,5.18,5.18,0,0,0,1.42.79c.23.11.45.23.68.36a147.09,147.09,0,0,0-266.94-.12c.87-.37,1.71-.78,2.54-1.22A145.35,145.35,0,0,1,147.45,88.84Z"/><path class="cls-1" d="M390.69,148.71a25.1,25.1,0,0,1-.12,3.36c-.07.59-.18,1.18-.28,1.77a146.16,146.16,0,0,1,4.59,27.94,10.57,10.57,0,0,1,1.78-.1A147.24,147.24,0,0,0,390.69,148.71Z"/><path class="cls-1" d="M132.14,123.18a137.25,137.25,0,0,1,21.61-28,136.21,136.21,0,0,1,192.64,0,137.21,137.21,0,0,1,20.81,26.69.83.83,0,0,1,.36.11,7.1,7.1,0,0,0,1.41.62,6,6,0,0,1,1,.42,138.68,138.68,0,0,0-22.3-29.1,138,138,0,0,0-195.16,0,138.84,138.84,0,0,0-22.62,29.66,14.29,14.29,0,0,1,2.11-.36A.43.43,0,0,1,132.14,123.18Z"/><path class="cls-1" d="M245.87,63.74a15.52,15.52,0,0,1,2.31-1.35,128.16,128.16,0,0,0-89.39,37.79,130.63,130.63,0,0,0-14.65,17.45c.88-.22,1.77-.4,2.62-.59a128.71,128.71,0,0,1,13.29-15.6,126.38,126.38,0,0,1,84.76-37.17A7.49,7.49,0,0,0,245.87,63.74Z"/><path class="cls-1" d="M341.35,100.18a128.13,128.13,0,0,0-88.2-37.77.91.91,0,0,1,.27.15,6,6,0,0,0,2.47,1,12.35,12.35,0,0,1,2,.79,126.36,126.36,0,0,1,82.24,37,129.19,129.19,0,0,1,11,12.57.71.71,0,0,1,1,.38c.2.43,1,.62,1.43.81s.67.27,1,.39A130.45,130.45,0,0,0,341.35,100.18Z"/><path class="cls-1" d="M166.35,107.74A117.52,117.52,0,0,1,235.11,74a.78.78,0,0,1,.18-.11c1.37-.61,2.65-1.39,4-2.13a119.3,119.3,0,0,0-74.16,34.72c-1.22,1.22-2.4,2.46-3.57,3.73,1.07-.32,2.15-.58,3.24-.84C165.29,108.83,165.81,108.28,166.35,107.74Z"/><path class="cls-1" d="M269,73.81A7.87,7.87,0,0,1,271,74.9a117.21,117.21,0,0,1,54.5,25.28c.51-.28,1-.56,1.54-.82l.19-.07a119.05,119.05,0,0,0-61.08-26.95.86.86,0,0,1,.07.1C266.68,73.2,268.22,73.49,269,73.81Z"/><path class="cls-1" d="M255.48,68.56c.78-.22,1.12-1.39.77-2.6s-1.26-2-2-1.81-1.12,1.39-.77,2.61S254.71,68.78,255.48,68.56Z"/><path class="cls-1" d="M330.7,104.66c.58-.17.84-1,.58-2s-.95-1.52-1.53-1.35-.83,1-.57,2S330.12,104.82,330.7,104.66Z"/><path class="cls-1" d="M331.14,191.52c-.58.16-.84,1-.58,1.95s.95,1.53,1.53,1.36.83-1,.57-2S331.72,191.35,331.14,191.52Z"/><path class="cls-1" d="M246.94,183.13c.78.23,1.69-.58,2-1.8s0-2.38-.77-2.61-1.68.59-2,1.81S246.17,182.91,246.94,183.13Z"/><path class="cls-1" d="M256.41,183c.77-.22,1.11-1.39.76-2.61s-1.26-2-2-1.8-1.11,1.39-.76,2.61S255.63,183.26,256.41,183Z"/><path class="cls-1" d="M246.12,68.56c.78.22,1.69-.58,2-1.8s0-2.38-.77-2.61-1.68.59-2,1.81S245.35,68.34,246.12,68.56Z"/><path class="cls-1" d="M389.89,130.08l-.07,0,0,0,0,0-.09,0-.12-.07c-.47-.24-1-.49-1.38-.69l-.11-.06h0l-.57-.25a2.23,2.23,0,0,0-1.68.12,3,3,0,0,1-3.05.07c-2.86-1.49-5.8-2.83-8.69-4.25l-41-20.09.1-3s-3.45-1.92-5-2.56a2.75,2.75,0,0,0-2.14.15,3.89,3.89,0,0,1-3.93.07c-3.65-1.88-7.39-3.61-11.1-5.41-17-8.33-52.74-25.86-52.74-25.86l-.05-2.32a2.7,2.7,0,0,0-.24-1.37,1.51,1.51,0,0,0-.76-.59c-1.93-.79-3.83-1.68-5.74-2.5-.14,0-.41-.12-.59-.16h-.13l-.59.16c-1.9.82-3.79,1.71-5.71,2.5a1.61,1.61,0,0,0-.78.59,2.76,2.76,0,0,0-.24,1.37l0,2.32v1.38L109,133.14h0v2.35h0v1.64h0V139h0v59.75h0V201h0v.78c.08.65.18,1.31.28,2q.65,4.26,1.53,8.46h0l.76-.11.49-.07h6.59L250.3,191.6,384,212.37h4.05l.72.11.47.06q.84-3.9,1.46-7.86c0-.22.07-.43.1-.64s.07-.42.1-.64h0l.15-1.09h0c0-.16.05-.33.07-.49V130.7Zm-1.84,28.36h0l-.54-.19a.77.77,0,0,1-.35-.68.81.81,0,0,1,.63-.45h.26Zm0,19.64h0l-.23-.07a.87.87,0,0,1-.44-.74c0-.21.41-.47.67-.52h0Zm0,19.41h0a1,1,0,0,1-.25-.44.71.71,0,0,1,.25-.75h0Zm-.9-68.15a6,6,0,0,1,.9.27h0v3.84h0C387.07,132.73,387.13,131.71,387.15,129.34Zm.67,7.41h.23v1.52h0a2,2,0,0,1-.73-.4A.65.65,0,0,1,387.82,136.75Zm-54.7-31.46L346,111.53q18.76,9.15,37.53,18.37c1.27.63,2-.23,3.18-.58-.25,1.46.81,3.15-1.43,3.88a11.64,11.64,0,0,1,1.47,1.4c-.1-.07-2.25-1.32-3.38-1.88-2.31-1.19-4.65-2.31-7-3.47a1.26,1.26,0,0,1-.87-1.4c0-.66.25-1.85-1.11-2-1.57-.19-1.81-.06-1.69,1.8-2-1-3.83-1.92-5.65-2.89-.17-.1-.19-.6-.16-.9a1.83,1.83,0,0,0-2.34-2c-.37.17-.5.86-.81,1.43-.75-.77-1.35-1.91-2.79-1.33-.06-.61-.09-1.07-.14-1.53s0-1.08-.22-1.17a3.66,3.66,0,0,0-2-.28c-.29.08-.37,1-.6,1.65-2-1-4.29-2-6.41-3.2-.55-.3-.65-1.38-.95-2.1-.17-.43-.22-1.11-.49-1.21a3.21,3.21,0,0,0-2-.08c-.23.08-.22,1-.35,1.63-4.33-2.11-8.8-4.27-13.26-6.47-.31-.16-1.43-.51-1.43-.51Zm48.19,67.35c-1.52-.43-3.07-.86-4.56-1.39-.36-.12-.85-.62-.85-1,0-4.15,0-8.3,0-12.58.67.24,10,3.77,10,3.77L386,173.8S382.9,173.08,381.31,172.64Zm4.94,4.38v3.13l-10.38-2.92V174ZM385.83,161l-10-3.77-.16-3.33,10.12,3.73Zm-10.5-25.31c1.27.5,10.19,4.73,10.19,4.73l.08,14.12s-4.82-2-7.31-2.93c-2.8-1.07-2.8-1.07-2.84-4q-.07-4.77-.12-9.55C375.32,137.27,375.33,136.58,375.33,135.65Zm0-.47-.06-4.5,10.19,4.86.07,4Zm-2.69-.68a.91.91,0,0,1,.42.72c0,4.72,0,9.47,0,14.35L369,148c-2.06-.79-2.09-.79-2.11-3-.05-3.66-.1-10.95-.1-10.95l0-2.34S370.87,133.62,372.63,134.5Zm-5.86-3.15v-4.58s3.38,1.53,4.63,2.2a1.32,1.32,0,0,1,.43.93c.11,1.23.15,2.45.21,3.88Zm5.56-2c.52.19.61.88.91,3,0-.83.07-3.43.07-3.43l1,.44v5.07C372.21,134.17,372.3,132.36,372.33,129.34Zm1-1.5.07-1.12a.26.26,0,0,1,.31-.25l.43.11a.49.49,0,0,1,.38.49l0,1.08a.31.31,0,0,1-.42.27l-.46-.17A.45.45,0,0,1,373.32,127.84Zm.79,7.48c.23,11.45.59,29.23.82,41.64l-.54-.15c-.18-14.26-.35-27.12-.51-41.44Zm.84,42.13c.16,8,.26,13.69.26,13.69s-.51-.1-.65-.09l-.14-12c0-.58,0-1.15,0-1.73Zm-10.8,17.14h-.31l-.6-34.19,1.61.62s.19,18.08.3,26.79c0,.68.06,1.3-.77,1.62-.25.1-.4.71-.4,1.08C364,191.87,364.15,194.59,364.15,194.59Zm-.92-65.78c0,.4.1,1,.34,1.14.92.54.82,1.33.84,2.14q.29,11.74.59,23.52V156l-1.74-.63-.26-31,.22.15S363.19,127.56,363.23,128.81Zm2.71-3.3v5.07c-2.09-.21-2-2-2-5,.52.17.6.87.91,3,0-.82.06-3.43.06-3.43ZM365,124l.06-1.12a.25.25,0,0,1,.31-.24l.43.1a.5.5,0,0,1,.37.49l0,1.08a.31.31,0,0,1-.41.27l-.45-.17A.38.38,0,0,1,365,124Zm.17,32.86v3l-2.13-.75,0-3ZM365.06,131l.48.33c.32,19.47.64,38.14,1,57.62h-.42C365.74,169.44,365.4,150.44,365.06,131Zm-3.38,5.69.22,18.2-.89-.33-.13-23.58v-7.56l.8.36S361.65,134.29,361.68,136.64Zm.94,19.31v3l-1.8-.64-.06-3Zm-12,30.05a33.71,33.71,0,0,0,.23-4,1.92,1.92,0,0,1,2.4,1.29c.21.4,1.53.32,2-.2l4.21,1-.08,3.8Zm7.81,2.1v5.37l-6.69-1.25v-5.49Zm-4-10.4a.72.72,0,0,0-1.11-.25c-.55.49-2.4.21-2.91-.13v-6.81l1.95.56c2.8.84,7,2.06,7,2.06l.21,6.93S355.33,179.72,354.4,177.7Zm-2.85-52.95c-.24-.11-.05-.06.36.1a5,5,0,0,1-.47-1.4c-.08-1.34,0-2.68,0-4.17,2.22,1,4.3,2,6.29,3a15.55,15.55,0,0,0-.19,2.53,11,11,0,0,0,.19,2.29c-1.46-.56-4.6-1.79-5.79-2.23,0,.05,0,.07,0,.08h0c1.57.75,5.31,2.5,6.45,3.08a1.12,1.12,0,0,1,.5.76c0,5.09,0,10.17,0,15.24-2.44-.94-5-1.89-7.62-2.92a1.15,1.15,0,0,1-.51-.89c0-4.73,0-9.47-.09-14.2,0-1,.54-1.07,1.25-1.07Zm8.59-1.73v5.08c-2.08-.22-2-2-2-5,.53.17.61.87.93,3,0-.81,0-3.43,0-3.43Zm-1-1.48.06-1.12a.26.26,0,0,1,.32-.24l.43.1a.47.47,0,0,1,.37.49l0,1.08a.33.33,0,0,1-.42.28l-.46-.18A.39.39,0,0,1,359.17,121.54Zm0,30.22.18,14.19-8.55-2.51V149Zm-8.37-3.23v-4.07l8.37,3v3.88ZM359.37,169l0,3.61-9-2.54v-3.78Zm.09-40.28h.43c.21,16,.61,59.41.61,59.41l-.44-.16S359.65,144,359.46,128.68Zm-10.29,41.5.49.13q.12,7.13.22,14.23c0,.36,0,.73,0,1.2-.67-.53-.67-.53-.66-3C349.22,182.39,349.21,177.27,349.17,170.18ZM349,124.37c.17.16.5.33.5.51.05,12.34,0,23,.09,35.28,0,3.23.06,6.45.1,9.67l-.48-.14C349.1,152.49,349,124.37,349,124.37Zm-1-5.53c.53.18.62.87.93,3,0-.82.06-3.43.06-3.43l1,.46v5.07C347.84,123.68,347.94,121.86,348,118.84Zm-.45,28.91c.35.13.88.28.88.28s.05,9.86.05,14.62l-8.6-2.6c-2.19-.67-4.38-1.33-6.54-2.06a.53.53,0,0,1-.1-.06c-.13-5.09-.25-10.22-.36-15.33C334.78,143.25,343.35,146.24,347.51,147.75ZM332.84,142c0-1.42-.06-2.84-.1-4.25,1.58.58,9.5,3.54,13.34,5,.36.14,2.25.67,2.25.67l.07,4.29s-4.61-1.62-6.88-2.45C339.45,144.48,334.26,142.51,332.84,142Zm16.84-24-.45-.16a.42.42,0,0,1-.27-.42l.06-1.12a.26.26,0,0,1,.31-.24l.44.11a.47.47,0,0,1,.37.48l0,1.08A.31.31,0,0,1,349.68,117.92Zm-17.16-7.67,14.83,6.9a20.51,20.51,0,0,0,0,5.57c-1.45-.67-3.15-1.42-4.55-2-3.1-1.39-6.2-2.8-9.33-4.16a1.36,1.36,0,0,1-1-1.49C332.57,113.51,332.52,112,332.52,110.25Zm1,6.65c4.26,1.89,8.48,3.82,12.76,5.67a2.91,2.91,0,0,1,2.06,3.2c-.15,4.69,0,14.24,0,14.24l-15.64-6.69c0-.17,0-.34,0-.52-.06-3.47-.12-7-.16-10.44l0-5.77A9.49,9.49,0,0,1,333.51,116.9Zm-2.75,45.75c-.74-.19-1.48-.38-2.18-.63a1.08,1.08,0,0,1-.57-.93c.05-.27.53-.61.86-.67a5.26,5.26,0,0,1,1.46.13c1.42.13,1.83.21,1.81,1.07A1.11,1.11,0,0,1,330.76,162.65Zm1.32,22.8v2.1c-2.54-.16-3.23-.22-3.52-1.17a.81.81,0,0,1,.61-1.06,16.66,16.66,0,0,1,2.55,0A2.36,2.36,0,0,1,332.08,185.45Zm-3.89-48.69a1,1,0,0,1-.44-.88,1,1,0,0,1,.79-.57c.81,0,1.63.1,2.53.19a.6.6,0,0,1,.55.59V137a.6.6,0,0,1-.78.58C329.91,137.33,329,137.08,328.19,136.76ZM332,107.82a.21.21,0,0,0,.1-.06v.37A2.74,2.74,0,0,0,332,107.82Zm.54,77.94c0,.52,0,1,.06,1.47a.48.48,0,0,1-.4.32l-.06-2.1A.7.7,0,0,1,332.52,185.76Zm-4.8-86a16.63,16.63,0,0,1,4.36,1.95v.12s0,0,0,0a1.06,1.06,0,0,1,.39.85c0,1.16,0,2.32,0,3.68l-.42-.17v.15C327.5,105,327.7,104.38,327.72,99.79Zm.86,9.47c.55,0,1.1.06,1.65.1a.86.86,0,0,1,.82.85v.56a.68.68,0,0,1-.68.68,3.92,3.92,0,0,1-2.43-.72A.85.85,0,0,1,328.58,109.26Zm-.17,3a1.73,1.73,0,0,1,.86,1.25c.15,6.66.24,13.32.34,20,0,.28,0,.57-.05.9h-1.11a1.52,1.52,0,0,0-1.51,1.32c-.18,1.34.2,1.56,1.86,2.48a1.75,1.75,0,0,1,.83,1.18c.17,6.57.29,13.13.41,19.68a2.27,2.27,0,0,1-.11.48l-.82,0a1.74,1.74,0,0,0-1.83,1.71c0,1,.59,1.53,2,2.27a1.8,1.8,0,0,1,.9,1.29c.16,6.4.25,12.81.34,19.22a.11.11,0,0,1,0,.06c-4.07.19-3,3.65-1.43,4.55l-1.68-.34c-.45-26.79-1.34-80.32-1.34-80.32l.2-.07a3,3,0,0,1,.22,1.09C326.05,110.67,326.84,111.6,328.41,112.22Zm-15.8-4.37c1.61.65,13,6.06,13,6.06l.11,18.06s-6.17-2.52-9.35-3.73c-3.59-1.38-3.59-1.38-3.64-5.21-.06-4.06-.1-8.13-.15-12.2C312.59,109.94,312.61,109.06,312.61,107.85Zm-.1-6.36,13,6.22.1,5.17-13-5.61Zm13.54,34.43v4.31l-12.76-4.84-.2-4.23Zm-12.76.16c.86.31,12.76,4.8,12.76,4.8l.15,15.76s-3.92-.92-5.94-1.48-3.92-1.1-5.84-1.77c-.46-.17-1.08-.8-1.08-1.24C313.28,146.86,313.29,141.54,313.29,136.08Zm0,20.8,13.27,3.89v4L313.29,161ZM258.64,69s11,5.32,16.39,8q24,11.72,48,23.51c1.63.79,2.6-.3,4-.74-.3,1.86,1.05,4-1.83,5a14.6,14.6,0,0,1,1.86,1.76c-.26-.15-2.9-1.68-4.28-2.39-3-1.51-6-2.95-8.94-4.44a1.59,1.59,0,0,1-1.11-1.78c0-.84.32-2.35-1.43-2.57-2-.27-2.3-.09-2.15,2.28-2.53-1.28-4.9-2.45-7.22-3.7-.21-.11-.26-.75-.2-1.14.24-1.68-1.47-3.29-3-2.61-.47.2-.65,1.1-1,1.83-1-1-1.71-2.45-3.58-1.71-.06-.79-.1-1.37-.17-2s0-1.4-.29-1.49a4.3,4.3,0,0,0-2.52-.36c-.38.1-.49,1.24-.77,2.11-2.61-1.27-5.5-2.51-8.21-4.09-.68-.4-.82-1.77-1.2-2.7-.23-.54-.29-1.43-.65-1.55a4.08,4.08,0,0,0-2.49-.1c-.31.1-.29,1.24-.45,2.09-5.55-2.71-11.26-5.46-17-8.28-.41-.2-1.82-.65-1.82-.65Zm50.52,37.35a1.2,1.2,0,0,1,.53.91c.05,6.06,0,12.12,0,18.36l-5.18-2c-2.66-1-2.67-1-2.7-3.78-.06-4.67-.13-14-.13-14l-.06-3S306.9,105.27,309.16,106.38Zm-7.5-4V96.5s4.34,2,5.94,2.81a1.71,1.71,0,0,1,.53,1.2c.13,1.55.18,3.12.28,5C306.55,104.62,301.66,102.34,301.66,102.34Zm7.11-2.55c.67.23.79,1.12,1.17,3.78,0-1,.08-4.38.08-4.38l1.27.57v6.5C308.61,106,308.74,103.65,308.77,99.79Zm1.28-1.92.07-1.43a.33.33,0,0,1,.41-.31l.55.12a.63.63,0,0,1,.48.62l-.07,1.38a.38.38,0,0,1-.51.36l-.59-.22A.5.5,0,0,1,310.05,97.87Zm1,9.57c.29,14.63.74,37.38,1.05,53.24l-.69-.2c-.22-18.22-.45-34.67-.66-53C310.75,107.48,311,107.45,311.05,107.44Zm1.06,53.87c.21,10.26.36,17.5.36,17.5-.18,0-.66-.12-.85-.12l-.17-15.38q0-1.11,0-2.19ZM298.3,183.23h-.38l-.77-43.73,2.06.81s.24,23.13.38,34.26c0,.85.09,1.64-1,2.07-.32.12-.53.9-.52,1.38C298.11,179.75,298.3,183.23,298.3,183.23Zm1.29-44.41-2.72-1,0-3.85,2.75,1ZM297.14,99.1c0,.52.11,1.28.43,1.48,1.16.65,1.05,1.69,1.07,2.72q.38,15,.75,30.08c0,.23,0,.45,0,.45l-2.22-.8-.33-39.69.28.2S297.08,97.51,297.14,99.1Zm3.47-4.21v6.49c-2.67-.29-2.55-2.62-2.52-6.47.68.23.78,1.12,1.17,3.79,0-1,.08-4.39.08-4.39ZM299.36,93l.08-1.43a.34.34,0,0,1,.41-.31l.55.13a.62.62,0,0,1,.47.61l-.06,1.39a.38.38,0,0,1-.51.35l-.59-.22A.52.52,0,0,1,299.36,93Zm.12,8.86.61.42c.41,24.9.82,48.78,1.23,73.68h-.53C300.35,151.05,299.92,126.77,299.48,101.85Zm-4.33,7.28c.08,7.38.29,23.26.29,23.26L294.3,132l-.17-30.15V92.16l1,.45S295.12,106.12,295.15,109.13Zm1.2,24.68v3.83l-2.31-.82L294,133ZM281,172.23a44.19,44.19,0,0,0,.29-5.15c1.71-.44,2.52.56,3.07,1.66.26.51,2,.42,2.54-.25l5.38,1.24-.1,4.87Zm10,2.7v6.87l-8.55-1.6v-7Zm-5.16-13.3a.91.91,0,0,0-1.42-.32c-.71.62-3.07.28-3.74-.17v-8.7l2.52.71c3.56,1.07,9,2.63,9,2.63l.25,8.88S287,164.22,285.85,161.63Zm4.21-64.74c-1.87-.7-5.87-2.28-7.39-2.85a6.34,6.34,0,0,1-.62-1.79c-.09-1.71,0-3.43,0-5.33l8,3.82a20.72,20.72,0,0,0-.23,3.22A14.76,14.76,0,0,0,290.06,96.89Zm-7.37-2.75c2,1,6.78,3.21,8.22,4a1.34,1.34,0,0,1,.66,1c0,6.5,0,13,0,19.48-3.14-1.18-6.47-2.41-9.76-3.72a1.49,1.49,0,0,1-.64-1.14c-.07-6.05-.07-12.11-.12-18.17C281.07,94.29,281.78,94.14,282.69,94.14Zm10.5-2.42v6.49c-2.67-.3-2.55-2.62-2.51-6.47.66.23.77,1.11,1.17,3.78,0-1,.07-4.38.07-4.38ZM292,89.82l.07-1.44a.34.34,0,0,1,.42-.31l.54.14a.59.59,0,0,1,.47.61l-.05,1.39a.38.38,0,0,1-.53.34l-.58-.21A.52.52,0,0,1,292,89.82Zm0,38.64.24,18.14-10.92-3.21V124.88C284,125.77,292,128.46,292,128.46Zm-10.68-4.14v-5.19L292,123v5Zm10.93,26.14-.05,4.6-11.46-3.24V147Zm.13-51.52h.53c.27,20.43.78,76,.78,76l-.56-.2S292.57,118.56,292.33,98.94ZM279.16,152l.63.17q.15,9.1.28,18.2c0,.47,0,.93,0,1.53-.86-.66-.86-.66-.84-3.88C279.23,167.63,279.2,161.08,279.16,152Zm-.27-58.58c.22.22.64.43.64.65.06,15.77,0,29.35.12,45.12,0,4.13.07,8.25.13,12.36l-.62-.17C279.06,129.39,278.89,93.43,278.89,93.43Zm-1.27-7.06c.67.22.78,1.12,1.17,3.79,0-1.06.08-4.39.08-4.39l1.27.57v6.49C277.46,92.55,277.58,90.23,277.62,86.37Zm-11.63,73a1.82,1.82,0,0,0,.63.46c1.66.66,3.37,1.19,5,1.81a3.48,3.48,0,0,1,1.52,1l-5.55-.91a.57.57,0,0,0-.61.79,2.2,2.2,0,0,0,.81,1.06,34.92,34.92,0,0,0,4.73,1.76c4.64,1.36,6.32,3.19,5.59,6.49-1.72-.29-3.47-.55-5.2-.88-4.43-.87-8.84-1.81-13.27-2.66-1.3-.24-1.7-.79-1.68-2.16.08-6,0-11.93,0-17.89,0-1.8.13-2.07,1.51-1.74l18.7,5.28a1.34,1.34,0,0,1,.07,1l0,7.39s-2.47.51-3.19-1.34a1.34,1.34,0,0,0-2.28-.41,6.26,6.26,0,0,0-.68,1.25c-1.65-.39-3.32-.85-5-1.16a2,2,0,0,0-.86.07A.47.47,0,0,0,266,159.34Zm-7.6,9.12,18.8,3.76v7.07c-2.93-.52-5.69-1-8.43-1.51-3-.54-6-1.17-9.06-1.7-.92-.18-1.37-.51-1.33-1.55C258.45,172.57,258.39,170.59,258.39,168.46Zm-3.67,1.79a1.38,1.38,0,0,1-.75-1.08c0-8,0-24.08,0-24.08l2.66.37,0-4.68-2.78-1.22,0-3.37s0-15.12-.05-22.66v-2.64l2.35.53-.17-4.91-2.33-1.67V103.1c.11-7.45,0-14.91,0-22.37V78.39l2.66,1s.83-4-.83-4.7c2.37.46,2,.36,2,2.44-.06,9.73-.19,19.46-.19,29.21,0,9,.13,18,.2,27q.15,17.06.31,34.13c0,2.29.22,8.22.22,8.22l-.52-.14-.14-4.54Zm1.71,4.12-2.35-.35v-2.37l2.28.37Zm-3-30.79v-2.67l2.28.69.06,2.34Zm.25-33.69v-3.38l1.55,1,.13,2.76Zm0-32.57v-2.9l1.55,1,.13,2.54Zm4.11,58c-.06-6.17,0-12.32,0-18.71.59.16,13.36,4.6,19.22,6.73.47.17,1.14.36,1.14.36s0,12.61,0,18.71c-3.7-1.13-7.34-2.22-11-3.34-2.81-.85-5.61-1.69-8.38-2.62C258.43,136.28,257.84,135.68,257.84,135.3Zm0-19.53v-5.41l17.41,6.52c.46.17,2.88.85,2.88.85l.08,5.5-8.81-3.12C266.29,119,257.8,115.77,257.8,115.77Zm20.43,30.58v4.72l-4.64-1.25-15.28-4.31v-5c4.08,1.19,8.77,2.65,12.75,3.81C273.05,144.9,278.23,146.35,278.23,146.35Zm1.59-61.16-.59-.22a.54.54,0,0,1-.34-.53L279,83a.33.33,0,0,1,.41-.3l.54.13a.61.61,0,0,1,.48.62l0,1.38A.4.4,0,0,1,279.82,85.19Zm-21.94-9.81c6.29,2.94,12.9,6,19,8.82a18.14,18.14,0,0,0-.25,3.56,18,18,0,0,0,.25,3.55L271,88.71c-4-1.78-7.94-3.59-11.94-5.33a1.74,1.74,0,0,1-1.21-1.91C257.93,79.54,257.88,77.61,257.88,75.38Zm1.25,8.5c5.45,2.41,10.86,4.89,16.31,7.24a3.74,3.74,0,0,1,2.65,4.11c-.18,6-.06,18.2-.06,18.2l-20.31-8.68.14-21.27A10.58,10.58,0,0,1,259.13,83.88Zm-7.65-21.94c1.87.86,3.64,1.64,5.38,2.49l.47.22a1.52,1.52,0,0,1,.49,1.1c.05,1.47,0,3,0,4.71-2.1-.9-4-1.67-5.81-2.49a1,1,0,0,1-.51-.75c0-1,0-1.93,0-3C251.47,63.53,251.48,62.77,251.48,61.94Zm-1.41,113.2-5.32,1.05v-3L112.09,198.21V139.76l1.17-3.67,4.67,1.68.74-3.91,4.08,1.87.86-4.19,5,1.72,1.09-4.38,4.47,2,1.27-4.48,4.6,2,1.9-5,5.13,2,1.35-4.83,5.65,1.85,2.12-5.35,4.88,2.41,1.19-5.33,5.49,2.5,1.18-5.4,6.65,2,2.28-6.21,5.27,3.1,1.73-6,6.06,2.7,2.07-6.25,7.28,2.3,1.66-6.46s5.55,2.91,6.37,3.07l1.78-6.45,6,3.15,1.18-6.45,5.94,3.45,2.16-7.1,6.22,3.56,2.61-7.31,6.05,3.65,1.46-6.73,5.13,4,1.5-7.49.76-.34,0,2.37H251V105l-1.75.23v5.48l1.87-.14v27.72l-1.61.33v5.28h1.83c0,2.48,0,4.84,0,7.23,0,5.67,0,11.34.1,17,0,1.09-.11,1.87-1.45,1.75C250,171.56,250.07,175.14,250.07,175.14Zm2.59-69.49.1,4-2.54.27v-4Zm-1-.81V77.93l.94.13.1,26.67Zm.24,33.19V110.64h.8l.21,27.22Zm.61,5.11-2.47.06v-3.6c.1,0,1.9-.47,2.4-.57Zm-1.86,27.62c.08,0,1.9-.47,2.4-.57l.06,4.12-2.46.06Zm1.34-1.51L252,144.59l1,.2.17,24.17ZM251.7,73l.78,0a.54.54,0,0,0,0-.1h0v4.22l-2.54,0v-4Zm-7.42-8.35c.17-.07.32-.15.49-.24,1.72-.81,3.49-1.51,5.35-2.36,0,.79,0,1.51,0,2.21,0,1,0,2,0,3a1,1,0,0,1-.52.75c-1.83.82-3.4,1.42-5.51,2.31,0-1.74,0-3.23,0-4.7C244.11,65.2,244,64.8,244.28,64.65Zm4,5.22v4.78l-136.21,61.1V134ZM150.47,197.34l-38.38,6v-2.86l38.38-6.87Zm92.22-14.54L152.77,197l0-3.72,90-16.49Zm8.63.63-6.79,1c0-1.93,0-3.75,0-5.57a1,1,0,0,1,.66-.75c2-.42,4-.76,6.1-1.17Zm7.47.8c-2-.26-3.93-.47-5.85-.82-.29,0-.67-.67-.68-1.06-.08-1.63,0-3.26,0-5.2l6.57,1.25Zm13,1.87a23.22,23.22,0,0,0-2.8-.44c-1.12,0-1.29-.57-1.22-1.51s0-2,0-3L260,179.81l-.32-1.32,17.61,3.34c.95,2,1.77,3.67,2.61,5.41Zm7.66-11.22-.25.09,0,4.61-.41-.07v-4.94l1.57-.28c-.25-.4-.43-.68-.64-1,.08,0,.29-.18.32-.15.41.45,1.09.88,1.13,1.38.14,1.62.06,3.75.06,5.45C279.55,179.8,279.46,175.86,279.46,174.88Zm1.82,12.57.86-4.58c3,.56,6,1.11,9,1.73.27.07.44.64.64,1,.5.88.74,2.63,1.28,3.7Zm13.29-4.79c-1.72-.19-1.81-4.13-1.81-5.11l-.25.08,0,4.61-.41-.05v-4.95c.36-.07.87-.15,1.57-.29-.25-.38-.42-.66-.62-1,.06,0,.28-.17.3-.14.41.44,1.1.89,1.14,1.38C294.66,178.83,294.57,181,294.57,182.66Zm.64,0c-.06-1.29,0-4.8,0-4.8s-.46-8.57-.52-12.87c-.11-8.15-.22-26.46-.22-26.46l1.15.37s.3,21.32.43,31.36q.07,5.67.14,11.32c0,.44,0,1.44,0,1.44h-.49S295.22,183.1,295.21,182.66Zm.23,7c.05-1,.2-2.39.2-2.39l.14-1.84,2.89.32a2.65,2.65,0,0,1,1.25,1.89l.59,2.82Zm6.46-5.92c-1.73-.18-1.81-4.12-1.81-5.09l-.25.08.05,4.6-.42-.06v-4.94L301,178l-.63-1c.08,0,.29-.18.31-.16.41.45,1.09.9,1.13,1.39C302,179.91,301.9,182,301.9,183.73Zm8.44-53.64v4.36l-8.17-3.06-.06-4.41Zm0,4.79v17.41c-2.52-.76-5.08-1.49-7.62-2.3a1.17,1.17,0,0,1-.53-.92c0-5.65,0-11.31,0-17Zm-8.18,18.75,8.43,2.75-.08,3.74L309,159.8l-6.74-1.9Zm.07,4.89,8.52,2.41.15,6.64c-.62.58-.77.72-1.58.08a1.46,1.46,0,0,0-1.81,0c-1.44,1.18-5.15.19-5.15.19Zm.27,12.59s2.8.89,4.16,1.42c.38.15.66.63.89,1s.2.81.43,1.1l0,0a1.07,1.07,0,0,0,1.8-.25h0a7,7,0,0,0,.19-.74c1.62,1.54.58,3.23,1,5-2.77-.59-7.65-1.68-7.65-1.68l-.86-.2Zm7.24,7.72v6.32c-2-.37-4-.71-5.89-1.14-.27-.06-.59-.63-.6-1-.07-1.77,0-3.55,0-5.51C305.4,178,307.55,178.38,309.74,178.83Zm-6.28,12c-.1-1.42-.2-2.79-.31-4.39,2.32.41,4.58.79,6.83,1.23a.94.94,0,0,1,.52.43c.8,1.35,1.57,2.7,2.39,4.1Zm9.83-4.78c-1.73-.18-1.82-4.12-1.82-5.09l-.25.08,0,4.6-.41-.06v-4.94l1.57-.28-.63-1c.07,0,.28-.19.31-.15.41.44,1.09.89,1.14,1.38C313.38,182.25,313.29,184.38,313.29,186.07Zm.42-8.75c0-.94,0-1.88,0-2.88,1.06-.55,1.26.21,1.55,1a5.75,5.75,0,0,0,.29.62,1,1,0,0,0,1.82,0v0l4,1a1,1,0,0,0,1-1.6c-1.11-1.23-3.17-1.23-4.28-2.53,1.36.14,3.61.26,4.94.26a.49.49,0,0,0,.34-.84,2.36,2.36,0,0,0-.57-.4,13.07,13.07,0,0,0-2-.54c-1.5-.48-7.46-2.08-7.46-2.08l0-7.67,13.27,3.75c0,.11,0,.42,0,.72.15,5,.21,10,.29,15,0,.07-.1.16-.25.37-1.28-.24-2.64-.47-4-.75-2.33-.46-4.66-1-7-1.39C314.31,179.19,313.69,178.62,313.71,177.32ZM327,182.1v6.19c-4.08-.73-8.13-1.44-12.39-2.18v-6.52Zm.15,12.81.14-3s-4.5-.6-7.08-.9c-.06.81-.09,1.49-.14,2.33l-5.72-.88v-4.17c2.81.45,5.43.89,8.05,1.33,1.57.25,3.12.59,4.69.76.86.1,1.08.43,1,1.24-.07,1,0,2.31,0,3.44Zm6.1.45-.25,0-.91-.11v.06l-3.22-.18v-4.39a36,36,0,0,1,3.88.41,1,1,0,0,1,.5.3Zm.05-34.07c3.1.92,6.57,2,9.55,2.86,1.56.46,5.6,1.59,5.6,1.59v3.7l-3.63-1-11.42-3.22C333.35,163.93,333.32,162.61,333.29,161.29Zm.11,4.47a2.35,2.35,0,0,1,.4.08L348.42,170a1,1,0,0,1,.05.79l0,5.78s-1.92.4-2.49-1a1.06,1.06,0,0,0-1.79-.32,6.78,6.78,0,0,0-.52,1c-1.29-.31-2.6-.66-3.93-.91a1.54,1.54,0,0,0-.66.06.36.36,0,0,0-.17.6,1.33,1.33,0,0,0,.49.37c1.3.52,2.62.94,3.94,1.41a2.87,2.87,0,0,1,1.18.78l-4.34-.7a.44.44,0,0,0-.47.62,1.72,1.72,0,0,0,.62.82,27,27,0,0,0,3.71,1.37c3.62,1.08,4.94,2.49,4.37,5.08-1.35-.23-2.71-.42-4.07-.69-3.46-.67-6.92-1.41-10.39-2.07l-.06,0Q333.62,174.32,333.4,165.76Zm.46,17.46L347.63,186v5.53l-6.6-1.17c-2.33-.44-4.66-.92-7-1.33C334,187.08,333.92,185.15,333.86,183.22Zm9.55,13.61a18.58,18.58,0,0,0-2.18-.34c-.88,0-1-.45-1-1.18s0-1.53,0-2.36c-1.92-.32-3.8-.59-5.65-1a1.52,1.52,0,0,1-.55-.33l0-.74,13.6,2.57c.75,1.55,1.38,2.87,2.05,4.23Zm6-8.77-.2.07,0,3.6-.34,0v-3.88l1.24-.21c-.21-.3-.34-.52-.5-.77.07,0,.23-.14.24-.12.33.35.86.69.9,1.08.1,1.27,0,2.93,0,4.26C349.48,191.91,349.41,188.83,349.41,188.06Zm1.43,9.84.66-3.6c2.33.46,4.68.87,7,1.36.2.06.32.49.48.77.4.68.59,2.06,1,2.89Zm10.38-3.75c-1.35-.16-1.42-3.23-1.42-4l-.19.06,0,3.61-.33,0v-3.87l1.24-.22c-.2-.31-.34-.52-.49-.78.05,0,.21-.13.23-.11.32.35.86.69.89,1.09C361.29,191.15,361.22,192.83,361.22,194.15Zm.5,0c0-1,0-3.76,0-3.76s-.37-6.71-.42-10.07c-.09-6.36-.16-20.69-.16-20.69l.89.31s.23,16.66.34,24.51c0,3,.07,5.9.11,8.85v1.13h-.39S361.73,194.48,361.72,194.15Zm.18,5.47c0-.75.16-1.87.16-1.87l.11-1.45,2.25.26a2,2,0,0,1,1,1.46l.47,2.21C364.52,200,363.21,199.81,361.9,199.62ZM367,195c-1.35-.14-1.42-3.21-1.42-4l-.19.06,0,3.6-.33,0v-3.88l1.22-.2c-.18-.31-.33-.53-.49-.77.07,0,.23-.15.24-.13.33.35.85.7.9,1.08C367,192,367,193.66,367,195ZM373.55,153v3.4l-6.38-2.39-.05-3.44Zm0,3.74V170.4c-2-.59-4-1.17-6-1.8a1,1,0,0,1-.41-.71c0-4.43,0-8.85,0-13.3Zm-6.39,14.66,6.58,2.16-.05,2.93-1.21-.27-5.28-1.49Zm0,3.82,6.67,1.89.12,5.2c-.49.45-.61.56-1.23.06a1.14,1.14,0,0,0-1.43,0c-1.13.92-4,.14-4,.14Zm.21,9.84s2.2.7,3.26,1.13c.3.11.51.48.7.78s.15.62.33.85v0a.84.84,0,0,0,1.41-.19h0a5.28,5.28,0,0,0,.14-.58c1.27,1.21.46,2.52.8,3.94-2.17-.47-6-1.33-6-1.33l-.68-.15Zm5.66,6.05v4.94c-1.59-.3-3.1-.55-4.59-.89-.22,0-.48-.49-.49-.75,0-1.39,0-2.79,0-4.31Zm-4.9,9.41c-.08-1.11-.16-2.19-.25-3.45l5.35,1a.82.82,0,0,1,.4.34c.62,1.05,1.23,2.11,1.87,3.21Zm7.69-3.75c-1.36-.15-1.42-3.23-1.42-4l-.2.06,0,3.6-.33,0v-3.87c.28-.05.68-.11,1.23-.22-.2-.3-.33-.53-.48-.76.05,0,.21-.15.23-.13.33.35.86.7.89,1.08C375.93,193.83,375.87,195.49,375.87,196.81Zm.32-6.84v-2.26c.83-.41,1,.18,1.21.78.07.16.15.32.23.49a.81.81,0,0,0,1.42,0h0l3.13.77a.76.76,0,0,0,.75-1.24c-.85-1-2.47-1-3.34-2,1.07.12,2.83.2,3.86.2a.39.39,0,0,0,.27-.66,2.32,2.32,0,0,0-.46-.31,10.54,10.54,0,0,0-1.54-.42c-1.19-.37-5.85-1.61-5.85-1.61v-6l10.38,2.94c0,.09,0,.33,0,.55.11,3.94.16,7.86.22,11.78,0,.06-.07.12-.19.3-1-.19-2.07-.38-3.12-.59-1.83-.36-3.64-.81-5.48-1.09C376.66,191.43,376.18,191,376.19,190Zm10.39,3.74v4.83l-9.69-1.7v-5.08Zm.1,10,.13-2.37s-3.53-.47-5.55-.7c0,.62-.07,1.16-.1,1.82l-4.48-.69v-3.27l6.3,1c1.23.2,2.44.47,3.68.61.66.07.83.34.79,1-.06.81,0,1.8,0,2.69Zm.2-5.24c-.35-21-1.05-62.81-1.05-62.81l.17-.06a2.47,2.47,0,0,1,.17.85c-.34,1.39.28,2.11,1.51,2.59a.93.93,0,0,1,.37.3h0v17h-.33a1.18,1.18,0,0,0-1.18,1c-.14,1,.16,1.23,1.45,1.94l.06,0h0V176h0a1.36,1.36,0,0,0-1.24,1.35c0,.7.36,1.1,1.24,1.58h0v16.54h0c-1.53.69-.94,2.5,0,3.18h0v.07h0C387.73,198.65,387.39,198.58,386.88,198.49Zm1.17,5.39h0v-3.43h0v3.43Z"/><path class="cls-1" d="M491.64,181.35c-.34,0-.67,0-1,0h-.34v0H490l-97.54,0h-1.32c0,.3,0,.62,0,.93s0,.8,0,1.21c0,1.26,0,2.52-.08,3.78q-.17,4.52-.6,9c-.05.55-.12,1.11-.18,1.66-.1.89-.2,1.77-.32,2.66,0,.15,0,.3-.06.45-.09.69-.18,1.36-.29,2.05h0c0,.29-.08.57-.13.85q-.6,3.9-1.41,7.71l-.15.7c-.27,1.23-.55,2.44-.85,3.65L250.3,194.77,113.1,216.09c-.33-1.35-.64-2.7-.94-4.06,0-.11,0-.23-.07-.35q-.87-4-1.48-8.14c-.15-.91-.27-1.83-.39-2.76-.1-.72-.19-1.44-.27-2.17a142,142,0,0,1-.94-15.1v-1.24h0v-.94h-1.3l-97.55,0H9.73v0H9.4c-.35,0-.68,0-1,0A173.13,173.13,0,0,0,50.75,357.1q5.84,5.83,12.15,11.06a175.53,175.53,0,0,0-8,31.78c-.08.52-.16,1-.23,1.55l1.17,1.05h0a292.66,292.66,0,0,0,350.57,28.53c.45-.27.89-.54,1.32-.83a291.46,291.46,0,0,0,37.46-28.46l-.06-.06.16-.14c-.07-.53-.15-1-.22-1.55a175.4,175.4,0,0,0-8-31.79q6.31-5.21,12.16-11.05a173.44,173.44,0,0,0,42.44-175.84ZM250.3,196.58l136.31,21.18c-.15.56-.29,1.12-.45,1.67h-26L250.3,202.35l-110,17.08H114c-.15-.53-.29-1.07-.43-1.6ZM209.73,317.43a138.79,138.79,0,0,1-18.44-7H308.85a138.45,138.45,0,0,1-18.44,7Zm74.14,1.79a141.71,141.71,0,0,1-67.6,0Zm-96.32-10.53a142.39,142.39,0,0,1-12.88-7.26h150.8a142.39,142.39,0,0,1-12.88,7.26Zm-15.63-9.05q-4.92-3.28-9.53-7H337.75q-4.62,3.68-9.54,7Zm-11.73-8.74q-4.2-3.48-8.12-7.26h196q-3.92,3.78-8.11,7.26Zm-9.93-9q-3.36-3.36-6.49-7h212.6q-3.14,3.58-6.49,7Zm-8-8.74q-3-3.54-5.73-7.26H363.64q-2.76,3.72-5.74,7.26Zm-7-9.05q-2.53-3.56-4.85-7.26H369.79q-2.32,3.7-4.86,7.26ZM129.25,255c-1.38-2.27-2.7-4.59-3.94-6.95H374.83c-1.25,2.36-2.57,4.68-3.94,6.95Zm-4.87-8.74q-1.75-3.42-3.33-7h258c-1.05,2.36-2.15,4.68-3.32,7Zm-4.1-8.74q-1.53-3.59-2.87-7.26H382.72c-.89,2.45-1.84,4.87-2.87,7.26Zm-3.5-9.05c-.84-2.39-1.6-4.81-2.31-7.26H385.66q-1.05,3.67-2.3,7.26Zm191-9-57.43-8.92-57.44,8.92H152l98.35-15.28,98.33,15.28Zm-11.63,0H204.49l45.81-7.11ZM107.7,182.27A145.09,145.09,0,0,0,109,201.78c.09.65.19,1.31.29,2,.42,2.84.94,5.66,1.53,8.46q.78,3.63,1.74,7.22c.16.6.33,1.2.49,1.79q1,3.66,2.27,7.26c.2.6.41,1.19.63,1.79.87,2.44,1.81,4.87,2.82,7.26.25.6.5,1.19.76,1.78q1.54,3.52,3.28,7l.91,1.79q1.84,3.52,3.89,6.95c.36.6.72,1.2,1.09,1.79q2.28,3.69,4.79,7.26c.42.6.85,1.19,1.28,1.79q2.7,3.7,5.66,7.26c.49.6,1,1.19,1.51,1.78q3.06,3.57,6.38,7l1,1.06.74.73q3.84,3.8,7.92,7.26c.71.6,1.43,1.2,2.15,1.78q4.5,3.69,9.26,7c.87.61,1.76,1.2,2.65,1.79q6,3.94,12.37,7.26c1.18.61,2.36,1.21,3.56,1.78a140.58,140.58,0,0,0,17.13,7c1.93.64,3.87,1.23,5.83,1.79a144.08,144.08,0,0,0,78.15,0c1.95-.56,3.89-1.15,5.82-1.79a139.13,139.13,0,0,0,17.14-7c1.2-.57,2.38-1.17,3.56-1.78A143.36,143.36,0,0,0,328,301.43c.9-.59,1.78-1.18,2.66-1.79q4.76-3.27,9.26-7c.72-.58,1.43-1.18,2.14-1.78q4.08-3.47,7.93-7.26l.69-.69c.37-.36.73-.73,1.09-1.1q3.33-3.39,6.39-7c.51-.59,1-1.18,1.51-1.78q3-3.56,5.66-7.26c.43-.6.86-1.19,1.28-1.79,1.68-2.37,3.27-4.8,4.79-7.26.37-.59.73-1.19,1.09-1.79q2-3.42,3.89-6.95l.92-1.79q1.73-3.44,3.27-7c.26-.59.51-1.18.76-1.78,1-2.39,1.95-4.82,2.83-7.26.21-.6.42-1.19.62-1.79q1.23-3.6,2.27-7.26h.06V221q1.19-4.2,2.1-8.47t1.56-8.5c0-.21.07-.42.1-.64h0l.15-1.09h0c0-.16.05-.33.07-.49a143.17,143.17,0,0,0,1.32-19.49l97.55,0c0,132.25-107.68,239.81-240,239.78S10.12,314.49,10.15,182.25Zm-56,173.9A172.14,172.14,0,0,1,8.84,184.11,240.38,240.38,0,0,0,79.45,352.78q7.2,7.2,14.92,13.73L80.08,379.14a170.65,170.65,0,0,1-15.64-11.4l-1.07-.89Q57.31,361.81,51.67,356.17ZM64,369a169.84,169.84,0,0,0,15.09,11L56.15,400.27A174.52,174.52,0,0,1,64,369Zm342.45,60.48a291.28,291.28,0,0,1-349.74-28l38.7-34.2a241.07,241.07,0,0,0,309.3.07l38.68,34.22a288.94,288.94,0,0,1-35.63,27Zm37.33-29.28-22.81-20.17a170.55,170.55,0,0,0,15-10.95A174.32,174.32,0,0,1,443.75,400.24Zm41.4-98.63a171.28,171.28,0,0,1-36.88,54.65q-5.62,5.64-11.7,10.68c-.35.3-.71.59-1.07.88a168.63,168.63,0,0,1-15.57,11.35l-14.24-12.59q7.71-6.52,14.92-13.73a240.26,240.26,0,0,0,70.68-168.28,172.52,172.52,0,0,1-6.14,117Z"/><path class="cls-1" d="M46.33,217.28l6-.76c-4.46,3-7.31,9.69-6,15.58.86,3.92,4.05,7.76,10.68,6.3,14.22-3.12,12-24.9,23.39-27.9,5.71-1.47,12,2.68,13.83,10.93.9,4.06.68,8.86-1.16,11.82l-5.56.51c4.55-2.21,7.6-10,5.27-15.06a7.36,7.36,0,0,0-8.71-4.11c-10.73,2.85-8.74,24.47-22.49,27.49-8.32,1.82-14.38-2.16-16.36-11.16C44.13,226,44.46,220.38,46.33,217.28Z"/><path class="cls-1" d="M57.68,269.05l-1.86-3.64c1.48-1.84,27-13.8,43.83-22.39l0,7.72L65.1,282.22l48.39-12-.13,6.44L72.22,297.56l-2.39-4.69,37-18.9c-2.54,1.29-24.55,5.42-42.72,9.15l.06-7.8L97.68,244.8C80.6,254.35,59.36,266.09,57.68,269.05Z"/><path class="cls-1" d="M87.35,317.91l-2.72-3c1.88-1.22,4.47-2.7,7.71-4.38l37-19.42,1.61,6.37L104.5,337.07l-3.6-4,7.87-11.77L98.42,309.7C92.66,313.45,87.9,317,87.35,317.91Zm40.55-25.35L106,305c-2.38,1.38-4.87,2.86-7.16,4.35l10.21,11.41Z"/><path class="cls-1" d="M152.58,314.05l-28,38.91c11.33,7.63,15.63,7.47,17.44,7.32l-2.63,3.66c-.92-.15-10.52-7.22-15.13-10.53L120,350.33,148.3,311Z"/><path class="cls-1" d="M181.1,331.65l-19.37,43.84c12.66,5.13,16.84,4.09,18.58,3.58l-1.82,4.11c-.93.05-11.78-4.89-17-7.18l-4.82-2.13,19.59-44.35Z"/><path class="cls-1" d="M319.36,360.76c-6.46-13.42-4.79-25.45,4.27-29.8,5.62-2.7,12.64-1.39,17.23,2.55l-2.63,4c-6.52-5.86-12.88-7.26-17.4-3.86-8,6-.68,20.47,3.84,27,7.64,11.08,17.89,16.53,24,12.69a6.4,6.4,0,0,0,2.36-8.51L344.35,351,335,355.48l-.24-.5,14.11-6.79,6.29,13.05c2.13,4.43-2.09,11-8.65,14.14C336.24,380.31,325.8,374.11,319.36,360.76Z"/><path class="cls-1" d="M376.2,312.51c5.42,6.39,5.41,13.67-.15,18.37l-.58.49,6.37-1.49,16.07,5.56c2,.71,4,.63,4.88-.13l-4.71,4c-1.56.95-4.65.3-8.14-.92-6.31-2.2-12.9-4.61-15-4.89-3.3-.47-4.31,1-5.33,2l13.84,16.33-4.06,3.35-31.36-37,8-6.81C363.18,305.28,370.47,305.74,376.2,312.51Zm-1.57,18.94c4.24-3,3.42-8.62-2.22-15.28-6.45-7.61-12.47-8.6-17.47-2.92l-2.12,2.43,14.78,17.44C370.19,334.47,373,332.68,374.63,331.45Z"/><path class="cls-1" d="M384.06,280.78c6.29-8.61,18.64-8.35,30.62.39s16,20.41,9.69,29-18.65,8.35-30.63-.39S377.76,289.39,384.06,280.78Zm41.6,25.65c3.13-6.39-4-16.48-15.88-22.66-12-6.21-23.87-5.75-27,.78s4.06,16.52,16,22.69C410.62,313.38,422.46,312.92,425.66,306.43Z"/><path class="cls-1" d="M401,254l31.64,12.56c7.15,2.83,13.73.37,16.31-6.13,2.48-6.24-.54-11.76-8.07-14.6-12.19-4.62-27.89-9.21-32.94-9.28l1.51-3.79c2,.48,6.48,2.27,10.54,3.88l21.2,8.42c9.21,3.65,12.37,10,9.17,18-3.4,8.56-11,11.79-19.67,8.37L399,258.86Z"/><path class="cls-1" d="M429.88,198.2c8.51,1.25,13.31,6.72,12.26,13.91L441,219.92l20.1,3-.84,5.2-48-7,1.53-10.42C415.13,201.36,420.9,196.89,429.88,198.2Zm11.56,15.28c1.17-5.08-3.13-8.72-11.91-10-10.15-1.49-15.32,1.75-15.31,9.31l0,3.22,24.07,3.53A13.87,13.87,0,0,0,441.44,213.48Z"/><path class="cls-1" d="M295.08,362.52c-1.49-2.76-4.31-4.27-7.85-4.27-.35,0-.72,0-1.09.05h0c.08-.81.15-1.62.2-2.42A5.18,5.18,0,0,0,285,352l-.32-.3h0a4.34,4.34,0,0,0-.67-.48h0a4.26,4.26,0,0,0-.76-.33l-.39-.11a4.38,4.38,0,0,0-.82-.08H216.31a3.72,3.72,0,0,0-1.2.19,4.17,4.17,0,0,0-.75.33,4,4,0,0,0-1,.8h0a4.07,4.07,0,0,0-.56.75,5.26,5.26,0,0,0-.77,3.1c.11,1.77.3,3.52.55,5.24.11.78.24,1.56.39,2.32h-.11c.1.27.73,2.95.73,2.95s0,.09,0,.14.07.32.12.47c.15.59.3,1.16.47,1.73l.18.63.15.52v0c.11.34.22.68.32,1l.15.42.15.45.05.14c.22.62.45,1.24.69,1.85l.27.66.18.45.42,1c0,.11.1.22.15.34s.09.21.14.31.16.34.24.51.19.41.29.61a48.38,48.38,0,0,0,4.63,7.64c.48.64,1,1.27,1.47,1.88a42.34,42.34,0,0,0,3.4,3.64l.71.66a37.42,37.42,0,0,0,2.91,2.38,34.16,34.16,0,0,0,4.52,2.81c.26.14.51.26.77.38l.78.37.69.31.21.08.66.27,0,0,.79.29c.24.08.47.17.71.24l.2.06.71.23h0l.76.21.16.05.61.14.69.16.57.12.46.09.16,0,.72.12.84.1c.25,0,.5.06.74.08l.88.07c.59,0,1.18,0,1.77,0s1.18,0,1.78,0l.88-.07c.25,0,.49,0,.74-.08l.83-.1.73-.12.16,0,.46-.09.57-.12.69-.16.61-.14.16-.05.76-.21h0l.71-.23a.76.76,0,0,0,.2-.06c.24-.07.47-.16.71-.24l.79-.29,0,0,.72-.29.09,0c.78-.33,1.55-.68,2.31-1.08l.76-.41.05,0,.72-.42.76-.46q.38-.22.75-.48c.48-.31,1-.65,1.43-1a38.66,38.66,0,0,0,3.73-3.13c.22-.2.43-.41.64-.62l.69-.7c.39-.4.76-.82,1.14-1.24a11.18,11.18,0,0,0,1.53,0,21.63,21.63,0,0,0,11.2-4.75C294.49,377.26,298.17,368.29,295.08,362.52Zm-39.36,34c-.8.2-1.6.37-2.42.5-.54.09-1.09.16-1.64.21-.27,0-.55.05-.82.06-.56,0-1.11.06-1.67.06s-1.11,0-1.66-.06c-.27,0-.55,0-.82-.06-.55,0-1.1-.12-1.64-.21-.82-.13-1.62-.3-2.42-.5-14-3.59-25.23-18.47-27.52-37.23-.06-.46-.11-.92-.16-1.38-.06-.72-.12-1.44-.17-2.17a2.44,2.44,0,0,1,.6-1.8l.08-.08a.34.34,0,0,1,.09-.08,2,2,0,0,1,.32-.2,1.23,1.23,0,0,1,.44-.09H282a1.3,1.3,0,0,1,.46.09,2,2,0,0,1,.32.2l.09.08.08.08a2.47,2.47,0,0,1,.59,1.8c-.06,1.09-.16,2.18-.29,3.25C281.07,377.87,269.81,392.89,255.72,396.5Zm29.12-15.3a19.71,19.71,0,0,1-8.71,4.06,48.17,48.17,0,0,0,4.52-7.47c.22-.42.44-.85.64-1.29a1.22,1.22,0,0,1,.07-.17c.14-.31.29-.63.42-.94a.77.77,0,0,1,.07-.16c.11-.27.23-.53.33-.8l.07-.18c.05-.11.09-.21.13-.32v0a2,2,0,0,0,.1-.26c.28-.72.55-1.44.8-2.18v0c.12-.34.24-.68.34-1l.05-.16c.11-.33.21-.67.31-1l0-.1c0-.13.07-.25.1-.37.22-.76.43-1.53.62-2.31,0,0,0,0,0-.08v-.05l0-.12.06-.25c.18-.76.56-2.32.63-2.53h-.1c.14-.76.27-1.54.39-2.32,3.21-.44,5.69.52,6.85,2.71a6.71,6.71,0,0,1,.75,3.22C293.39,371.46,290.1,377.15,284.84,381.2Z"/><path class="cls-1" d="M258.2,358.93a12.05,12.05,0,0,0-6.17,2.38c-1.64,1.11-2.76,2.73-4.17,4.05-2.37-2.87-4.94-5.78-9-5.51-3.81.26-6.23,3.44-6.17,7.13.07,4.09,2.65,7.6,5.49,10.32,3,2.87,6.25,5.48,9.5,8.07h0s1.88,1.55,2,1.55l1.72-1.37a96.34,96.34,0,0,0,8.79-8.21c2.84-3,6.05-6.74,5.69-11.18C265.49,362.33,262.17,358.8,258.2,358.93Z"/><path class="cls-1" d="M229.45,373a11.6,11.6,0,0,1,1-12.65c.44-.57-.5-1.21-.93-.63a12,12,0,0,0-.79,13.62C229,373.8,229.7,373.49,229.45,373Z"/><path class="cls-1" d="M230.91,375.68a1.39,1.39,0,0,0-1.81,1.17.48.48,0,0,0,0,.22c0,.9.49,2,1.5,2.08a1.75,1.75,0,0,0,1.72-1.55A1.81,1.81,0,0,0,230.91,375.68Z"/><path class="cls-1" d="M267.72,360.36a11.62,11.62,0,0,1,.95,12.65c-.25.48.49.79.76.34a12,12,0,0,0-.78-13.62C268.21,359.15,267.28,359.79,267.72,360.36Z"/><path class="cls-1" d="M267.22,375.68a1.81,1.81,0,0,0-1.37,1.92,1.75,1.75,0,0,0,1.72,1.55c1-.1,1.48-1.18,1.5-2.08a.38.38,0,0,0-.05-.22A1.38,1.38,0,0,0,267.22,375.68Z"/></g></g></svg>